<svg id="Capa_1" enable-background="new 0 0 512 512" height="512" viewBox="0 0 512 512" width="512" xmlns="http://www.w3.org/2000/svg"><g><g><g><path d="m382.602 338.043c0-.001 0-.001 0-.002.675 5.157 1.029 10.405 1.029 15.731 0 4.583-.258 9.11-.761 13.57.479-.028.961-.048 1.447-.048 7.069 0 13.428 3.04 17.841 7.884 2.922-3.207 6.698-5.618 10.966-6.885v-30.25z" fill="#fedf30"/></g><path d="m277.164 204.322c3.742-6.452 10.706-10.802 18.701-10.802s14.959 4.351 18.701 10.802c3.742-6.452 10.706-10.802 18.701-10.802s14.959 4.351 18.701 10.802c3.742-6.452 10.706-10.802 18.701-10.802s14.959 4.351 18.701 10.802c3.742-6.452 10.706-10.802 18.701-10.802s14.96 4.351 18.701 10.802c3.742-6.452 10.706-10.802 18.701-10.802s14.959 4.351 18.701 10.802c3.731-6.433 10.666-10.774 18.631-10.8-17.538-35.181-61.127-60.1-112.137-60.1-51.009 0-94.599 24.919-112.137 60.1 7.967.026 14.902 4.367 18.633 10.8z" fill="#f6a96c"/><path d="m277.164 204.322c3.742-6.452 10.706-10.802 18.701-10.802 2.047 0 4.026.289 5.901.822 14.763-30.452 48.978-53.367 90.723-59.37-7.076-1.018-14.369-1.549-21.819-1.549-51.009 0-94.599 24.919-112.137 60.1 7.965.025 14.9 4.366 18.631 10.799z" fill="#ea9b58"/><path d="m482.877 235.766c-7.316 0-14.15-3.948-17.836-10.304l-.865-1.492-.865 1.491c-3.687 6.356-10.521 10.304-17.836 10.304-7.316 0-14.15-3.948-17.836-10.304l-.865-1.492-.865 1.491c-3.687 6.356-10.521 10.304-17.836 10.304-7.316 0-14.15-3.948-17.836-10.304l-.865-1.492-.865 1.491c-3.687 6.356-10.521 10.304-17.836 10.304s-14.149-3.948-17.836-10.304l-.865-1.491-.865 1.491c-3.687 6.356-10.521 10.304-17.836 10.304-7.316 0-14.15-3.948-17.836-10.304l-.865-1.492-.865 1.492c-2.718 4.688-7.069 8.073-12.251 9.533l-2.752.775 2.636 1.109c19.71 8.291 37.319 20.985 50.924 36.711l.299.346h113.056l18.5-38.233c-.414.028-.821.066-1.238.066z" fill="#7ca1b1"/><path d="m482.877 193.52c-7.995 0-14.959 4.351-18.701 10.802-3.742-6.452-10.706-10.802-18.701-10.802s-14.959 4.351-18.701 10.802c-3.742-6.452-10.706-10.802-18.701-10.802s-14.959 4.351-18.701 10.802c-3.742-6.452-10.706-10.802-18.701-10.802s-14.959 4.351-18.701 10.802c-3.742-6.452-10.706-10.802-18.701-10.802s-14.96 4.351-18.701 10.802c-3.742-6.452-10.706-10.802-18.701-10.802s-14.959 4.351-18.701 10.802c-3.742-6.452-10.706-10.802-18.701-10.802-11.942 0-21.623 9.681-21.623 21.623 0 3.382.798 6.569 2.183 9.42 1.708-.057 3.421-.097 5.144-.097 20.523 0 40.009 4.112 57.555 11.492 5.468-1.541 10.054-5.182 12.845-9.994 3.742 6.452 10.706 10.802 18.701 10.802s14.959-4.351 18.701-10.802c3.742 6.452 10.706 10.802 18.701 10.802s14.959-4.351 18.701-10.802c3.742 6.452 10.706 10.802 18.701 10.802s14.96-4.351 18.701-10.802c3.742 6.452 10.706 10.802 18.701 10.802s14.959-4.351 18.701-10.802c3.742 6.452 10.706 10.802 18.701 10.802 11.942 0 21.623-9.681 21.623-21.623-.001-11.942-9.682-21.623-21.624-21.623z" fill="#fed2a4"/><path d="m373.347 304.973c0-.001-.001-.002-.001-.002 4.582 10.416 7.743 21.508 9.256 33.072h46.024c8.561 0 15.501-6.94 15.501-15.502v-17.568z" fill="#e8b800"/><path d="m499.333 272.937h-146.32c8.342 9.643 15.222 20.417 20.333 32.036h125.986c2.854 0 5.167-2.313 5.167-5.167v-21.702c.001-2.854-2.312-5.167-5.166-5.167z" fill="#fedf30"/></g><g><g><g><path d="m41.387 294.695h32.823v-.604c0-1.712 1.388-3.1 3.1-3.1h12.839v-22.743h-32.823c-.724-8.711-8.01-15.558-16.908-15.558-9.377 0-16.979 7.602-16.979 16.979 0 3.566 1.119 6.861 2.997 9.593 7.987.918 14.281 7.372 14.951 15.433z" fill="#ffbd86"/></g><path d="m122.225 290.99c5.785-9.639 12.853-18.525 21.004-26.448h-49.98c-1.712 0-3.1 1.388-3.1 3.1v23.348z" fill="#fe7701"/></g><path d="m491.958 350.832c-17.264-3.127-35.726 1.971-49.072 15.317-2.402 2.402-4.531 4.971-6.397 7.668 4.698 4.402 7.638 10.659 7.638 17.606 0 2.915-.517 5.709-1.464 8.296h34.152c13.212-13.332 18.256-31.701 15.143-48.887z" fill="#46cc8d"/><g><path d="m442.663 399.718c.947-2.587 1.464-5.381 1.464-8.296 0-13.326-10.803-24.128-24.128-24.128s-24.129 10.803-24.129 24.128c0 2.915.517 5.709 1.464 8.296z" fill="#fd4755"/><g><path d="m87.232 374.893c-4.401-4.675-10.641-7.599-17.568-7.599-13.326 0-24.129 10.803-24.129 24.128 0 2.915.517 5.709 1.464 8.296h35.137c-.947-2.587-1.464-5.381-1.464-8.296 0-6.398 2.495-12.211 6.56-16.529z" fill="#fd4755"/><path d="m374.556 399.718c5.859-14.278 9.075-29.762 9.075-45.946 0-71.413-62.441-129.305-139.465-129.305-52.89 0-98.901 27.297-122.544 67.524h82.845c21.947 0 39.803 17.855 39.803 39.802 0 21.965-17.828 39.835-39.742 39.835-4.339 0-8.666-.722-12.858-2.146l-86.206-29.273c-.501 4.458-.762 8.982-.762 13.562 0 16.184 3.217 31.669 9.075 45.946h260.779z" fill="#fe9738"/><g fill="#fe860a"><path d="m174.519 290.99c19.757-32.912 54.563-56.992 95.797-64.245-8.471-1.49-17.21-2.279-26.149-2.279-52.448 0-98.126 26.848-121.941 66.524z"/><path d="m128.929 391.422c0 2.915-.517 5.709-1.464 8.296h38.611c-5.246-12.791-8.366-26.551-8.96-40.913l-51.76-17.576c-.429 4.128-.655 8.311-.655 12.543 0 4.573.258 9.089.758 13.539 13.02.349 23.47 11.006 23.47 24.111z"/></g><path d="m365.875 399.718c.947-2.587 1.464-5.381 1.464-8.296 0-13.326-10.803-24.128-24.128-24.128-13.326 0-24.129 10.803-24.129 24.128 0 2.915.517 5.709 1.464 8.296z" fill="#fd4755"/><path d="m406.982 399.718c.947-2.587 1.464-5.381 1.464-8.296 0-13.326-10.803-24.128-24.129-24.128s-24.128 10.803-24.128 24.128c0 2.915.517 5.709 1.464 8.296z" fill="#e41f2d"/><path d="m127.465 399.718c.947-2.587 1.464-5.381 1.464-8.296 0-13.326-10.803-24.128-24.129-24.128s-24.128 10.803-24.128 24.128c0 2.915.517 5.709 1.464 8.296z" fill="#e41f2d"/><path d="m74.209 294.695h-32.822c-.724-8.711-8.01-15.558-16.908-15.558-9.377 0-16.979 7.602-16.979 16.979 0 5.267 2.399 9.974 6.164 13.088-3.764 3.114-6.164 7.821-6.164 13.088 0 9.377 7.602 16.979 16.979 16.979 8.898 0 16.184-6.847 16.908-15.558h32.823v-29.018z" fill="#fed2a4"/><g><path d="m191.348 370.429-115.035-39.062c-1.258-.427-2.103-1.608-2.103-2.936v-34.34c0-1.712 1.388-3.1 3.1-3.1h127.158c22.535 0 40.803 18.268 40.803 40.803-.001 27.946-27.461 47.621-53.923 38.635z" fill="#fe7701"/></g><g><path d="m223.078 353.801-115.035-39.063c-1.258-.427-2.103-1.608-2.103-2.936v-20.812h-28.63c-1.712 0-3.1 1.388-3.1 3.1v34.34c0 1.328.846 2.509 2.103 2.936l115.035 39.063c17.748 6.027 35.931-.85 45.991-14.456-4.675.126-9.483-.55-14.261-2.172z" fill="#f46700"/></g></g><g><g><path d="m476.816 437.391h-425.031c-1.545 0-3.008-.691-3.99-1.884l-22.498-27.339c-2.774-3.371-.376-8.451 3.99-8.451h470.028c4.366 0 6.764 5.079 3.99 8.451l-22.498 27.339c-.983 1.193-2.446 1.884-3.991 1.884z" fill="#fac600"/></g><g><path d="m110.677 435.507-22.498-27.339c-2.774-3.371-.376-8.451 3.99-8.451h-62.882c-4.366 0-6.764 5.079-3.99 8.451l22.498 27.339c.982 1.193 2.445 1.884 3.99 1.884h62.882c-1.545 0-3.008-.691-3.99-1.884z" fill="#e8b800"/></g></g></g></g><g><path d="m176.076 157.868h24.725c6.416 0 11.635 5.219 11.635 11.635v17.046c0 4.142 3.358 7.5 7.5 7.5s7.5-3.358 7.5-7.5v-17.046c0-14.687-11.949-26.635-26.635-26.635h-24.725c-6.308 0-11.44-5.132-11.44-11.44s5.132-11.439 11.44-11.439h54.825c14.579 0 26.439-11.861 26.439-26.44s-11.861-26.439-26.439-26.439h-43.86c-4.142 0-7.5 3.358-7.5 7.5s3.358 7.5 7.5 7.5h43.86c6.308 0 11.439 5.132 11.439 11.439 0 6.308-5.132 11.44-11.439 11.44h-54.825c-14.579 0-26.44 11.861-26.44 26.439 0 14.579 11.861 26.44 26.44 26.44z"/><path d="m85.976 208.204h24.536c6.334 0 11.488 5.154 11.488 11.489v16.916c0 4.142 3.358 7.5 7.5 7.5s7.5-3.358 7.5-7.5v-16.916c0-14.606-11.883-26.489-26.488-26.489h-24.536c-6.228 0-11.294-5.067-11.294-11.294s5.067-11.294 11.294-11.294h28.687c4.142 0 7.5-3.358 7.5-7.5s-3.358-7.5-7.5-7.5h-28.687c-14.499 0-26.294 11.795-26.294 26.294s11.795 26.294 26.294 26.294z"/><circle cx="298.5" cy="304.5" r="7.5"/><circle cx="335.5" cy="321.5" r="7.5"/><circle cx="357.5" cy="347.5" r="7.5"/><circle cx="326.5" cy="286.5" r="7.5"/><circle cx="301.5" cy="352.5" r="7.5"/><path d="m499.333 265.437h-21.276l10.516-21.733c13.34-2.656 23.427-14.451 23.427-28.56 0-14.471-10.61-26.505-24.458-28.745-15.307-27.568-45.208-48.273-81.47-56.538v-.572c0-4.142-3.357-7.5-7.5-7.5-3.433 0-6.321 2.309-7.211 5.457-4.567-.589-9.215-.971-13.92-1.166-1.203-2.534-3.779-4.291-6.771-4.291s-5.568 1.757-6.771 4.291c-4.706.195-9.354.577-13.921 1.167-.89-3.148-3.778-5.458-7.211-5.458-4.143 0-7.5 3.358-7.5 7.5v.572c-36.261 8.265-66.163 28.971-81.469 56.538-13.848 2.24-24.457 14.274-24.457 28.745 0 .845.038 1.681.109 2.507-34.626 3.22-65.736 17.686-89.077 39.392h-47.124c-3.212 0-6.088 1.441-8.034 3.705h-22.025c-3.608-9.116-12.564-15.558-22.772-15.558-13.498 0-24.479 10.981-24.479 24.479 0 1.153.091 2.293.25 3.417-9.43 3.404-16.189 12.442-16.189 23.03 0 4.701 1.335 9.22 3.787 13.088-2.452 3.869-3.787 8.388-3.787 13.089 0 13.498 10.981 24.479 24.479 24.479 10.208 0 19.164-6.442 22.772-15.558h19.837c.91 3.343 3.419 6.101 6.813 7.254l23.516 7.985c-.14 2.423-.216 4.862-.216 7.318 0 2.313.066 4.616.189 6.911-3.677.887-7.109 2.409-10.163 4.458-5.028-3.372-11.068-5.346-17.564-5.346-17.44 0-31.628 14.188-31.628 31.628 0 .267.02.53.027.795h-8.775c-4.952 0-9.341 2.782-11.455 7.259-2.114 4.478-1.473 9.634 1.674 13.457l22.499 27.34c2.416 2.934 5.98 4.617 9.781 4.617h317.206c4.143 0 7.5-3.358 7.5-7.5s-3.357-7.5-7.5-7.5h-316.105l-18.659-22.673h460.146l-18.659 22.673h-71.723c-4.143 0-7.5 3.358-7.5 7.5s3.357 7.5 7.5 7.5h72.824c3.802 0 7.367-1.684 9.781-4.618l22.498-27.338c3.146-3.824 3.788-8.98 1.674-13.458-2.113-4.478-6.503-7.259-11.454-7.259h-7.427c7.37-12.754 10.14-27.87 7.45-42.723-.558-3.077-2.966-5.486-6.043-6.043-20.316-3.678-41.141 2.824-55.712 17.394-.89.89-1.738 1.812-2.567 2.748-4.298-2.328-9.195-3.678-14.392-3.78v-14.271h8.002c12.683 0 23.001-10.318 23.001-23.001v-10.068h47.706c6.984 0 12.667-5.683 12.667-12.667v-21.702c0-6.985-5.683-12.667-12.667-12.667zm-426.134 126.781h-20.137c-.013-.264-.027-.528-.027-.795 0-9.169 7.459-16.628 16.628-16.628 2.608 0 5.072.611 7.268 1.688-2.396 4.452-3.76 9.539-3.76 14.94.001.267.021.529.028.795zm374.991-20.766c9.811-9.81 23.342-14.817 37.052-13.904.84 12.629-3.357 25.111-11.697 34.67h-12.367l10.247-10.247c2.929-2.929 2.929-7.678 0-10.606-2.93-2.929-7.678-2.929-10.607 0l-10.628 10.628c-.939-2.998-2.314-5.805-4.049-8.348.659-.75 1.339-1.483 2.049-2.193zm-151.426-209.215c11.352-7.605 24.462-13.309 38.503-16.897v7.718c0 4.142 3.357 7.5 7.5 7.5s7.5-3.358 7.5-7.5v-10.692c4.252-.605 8.561-1.005 12.903-1.228v11.92c0 4.142 3.357 7.5 7.5 7.5s7.5-3.358 7.5-7.5v-11.92c4.342.224 8.651.624 12.902 1.228v10.692c0 4.142 3.357 7.5 7.5 7.5s7.5-3.358 7.5-7.5v-7.718c14.042 3.588 27.152 9.292 38.504 16.898 11.059 7.409 20.069 16.356 26.633 26.251-2.534 1.115-4.906 2.581-7.034 4.364-5.176-4.337-11.785-6.832-18.701-6.832-6.917 0-13.526 2.494-18.701 6.832-5.176-4.337-11.785-6.832-18.701-6.832-6.917 0-13.526 2.494-18.701 6.832-5.176-4.337-11.785-6.832-18.701-6.832-6.917 0-13.526 2.494-18.701 6.832-5.176-4.337-11.785-6.832-18.701-6.832-6.917 0-13.526 2.494-18.701 6.832-5.175-4.337-11.784-6.832-18.701-6.832-6.916 0-13.525 2.495-18.701 6.832-2.127-1.783-4.5-3.249-7.034-4.364 6.564-9.896 15.574-18.843 26.633-26.252zm-38.301 38.783c5.007 0 9.687 2.707 12.213 7.064 1.342 2.313 3.813 3.738 6.488 3.738 2.674 0 5.146-1.424 6.487-3.737 2.528-4.358 7.208-7.065 12.214-7.065 5.007 0 9.687 2.707 12.213 7.064 1.342 2.313 3.813 3.738 6.488 3.738s5.146-1.424 6.488-3.738c2.526-4.357 7.206-7.064 12.213-7.064 5.006 0 9.686 2.707 12.214 7.065 1.342 2.313 3.813 3.737 6.487 3.737 2.675 0 5.146-1.424 6.488-3.738 2.526-4.357 7.206-7.064 12.213-7.064 5.006 0 9.686 2.707 12.214 7.065 1.341 2.313 3.813 3.737 6.487 3.737 2.675 0 5.146-1.424 6.488-3.738 2.526-4.357 7.206-7.064 12.213-7.064 5.006 0 9.686 2.707 12.214 7.065 1.342 2.313 3.813 3.737 6.487 3.737 2.675 0 5.146-1.424 6.488-3.738 2.526-4.357 7.206-7.064 12.213-7.064 5.006 0 9.686 2.707 12.214 7.065 1.341 2.313 3.813 3.737 6.487 3.737 2.675 0 5.146-1.424 6.488-3.738 2.526-4.357 7.206-7.064 12.213-7.064 7.787 0 14.123 6.335 14.123 14.123s-6.336 14.123-14.123 14.123c-5.007 0-9.687-2.707-12.213-7.064-1.342-2.313-3.813-3.738-6.488-3.738-2.674 0-5.146 1.424-6.487 3.737-2.528 4.358-7.208 7.065-12.214 7.065-5.007 0-9.687-2.707-12.213-7.064-1.342-2.313-3.813-3.738-6.488-3.738-2.674 0-5.146 1.424-6.487 3.737-2.528 4.358-7.208 7.065-12.214 7.065-5.007 0-9.687-2.707-12.213-7.064-1.342-2.313-3.813-3.738-6.488-3.738-2.674 0-5.146 1.424-6.487 3.737-2.528 4.358-7.208 7.065-12.214 7.065-5.007 0-9.687-2.707-12.213-7.064-1.342-2.313-3.813-3.738-6.488-3.738-2.674 0-5.146 1.424-6.487 3.737-2.528 4.358-7.208 7.065-12.214 7.065-5.007 0-9.687-2.707-12.213-7.064-1.342-2.313-3.813-3.738-6.488-3.738s-5.146 1.424-6.488 3.738c-1.476 2.546-3.691 4.523-6.274 5.731-17.618-7.019-36.996-10.924-57.331-10.963-.079-.599-.133-1.206-.133-1.827 0-7.788 6.335-14.123 14.123-14.123zm-160.815 71.022h28.764c-2.956 3.681-5.729 7.495-8.282 11.448h-20.482zm-30.939 44.172h-25.322c-3.901 0-7.151 2.991-7.474 6.879-.404 4.867-4.548 8.679-9.433 8.679-5.227 0-9.479-4.252-9.479-9.479 0-2.834 1.255-5.499 3.444-7.31 1.722-1.425 2.719-3.543 2.719-5.779s-.997-4.354-2.719-5.779c-2.189-1.811-3.444-4.475-3.444-7.31 0-5.227 4.252-9.479 9.479-9.479 4.885 0 9.029 3.812 9.433 8.679.323 3.888 3.573 6.879 7.474 6.879h25.323v14.02zm2.566-29.019h-22.024c-2.758-6.968-8.644-12.362-15.822-14.523-.32-.957-.491-1.969-.491-3.004 0-5.227 4.252-9.479 9.479-9.479 4.885 0 9.029 3.813 9.434 8.679.323 3.888 3.573 6.879 7.474 6.879h25.323v7.743h-5.338c-3.212 0-6.089 1.442-8.035 3.705zm52.127 105.023h-33.203c-.013-.264-.027-.528-.027-.795 0-9.169 7.459-16.628 16.628-16.628s16.628 7.459 16.628 16.628c.001.267-.014.531-.026.795zm231.315 0h-26.109c-.013-.264-.027-.528-.027-.795 0-9.169 7.46-16.628 16.629-16.628 4.584 0 8.742 1.865 11.753 4.876-1.461 3.636-2.273 7.6-2.273 11.752-.001.267.02.529.027.795zm-9.507-32.424c-17.44 0-31.629 14.188-31.629 31.628 0 .267.02.53.027.795h-175.206c.007-.266.027-.528.027-.795 0-14.812-10.237-27.273-24.006-30.694-.142-2.308-.222-4.627-.222-6.957 0-.765.011-1.527.026-2.289l76.708 26.048c5.168 1.755 10.453 2.62 15.687 2.62 9.889 0 19.596-3.088 27.978-9.093 12.818-9.185 20.169-23.496 20.169-39.265 0-5.638-.967-11.169-2.875-16.44-1.41-3.895-5.709-5.909-9.605-4.499-3.895 1.41-5.909 5.71-4.499 9.605 1.314 3.629 1.98 7.442 1.98 11.333 0 10.872-5.068 20.739-13.906 27.071-8.836 6.332-19.81 7.958-30.104 4.463l-112.05-38.049v-26.786h122.758c3.762 0 7.469.63 11.017 1.874 3.911 1.372 8.189-.688 9.559-4.598s-.689-8.188-4.598-9.559c-5.146-1.803-10.522-2.718-15.978-2.718h-68.005c23.927-31.148 63.28-51.524 107.704-51.524 72.766 0 131.965 54.642 131.965 121.805 0 2.4-.084 4.788-.235 7.165-4.532 1.256-8.658 3.497-12.134 6.478-5.532-4.744-12.711-7.619-20.553-7.619zm57.709 32.424h-33.203c-.013-.264-.027-.528-.027-.795 0-9.169 7.459-16.628 16.628-16.628s16.629 7.459 16.629 16.628c0 .267-.014.531-.027.795zm4.705-28.934c-1.196.615-2.356 1.289-3.458 2.045-3.335-2.288-7.132-3.94-11.215-4.816.116-2.238.18-4.485.18-6.741 0-2.765-.116-5.504-.291-8.229h14.784zm31.003 28.138c0 .267-.014.531-.027.795h-20.681c.007-.266.027-.528.027-.795 0-5.315-1.324-10.325-3.65-14.726 2.303-1.214 4.922-1.902 7.703-1.902 9.169 0 16.628 7.459 16.628 16.628zm0-68.88c0 4.412-3.589 8.001-8.001 8.001h-39.645c-1.141-6.17-2.702-12.209-4.7-18.07h52.346zm60.373-25.069h-118.897c-2.881-5.915-6.204-11.604-9.924-17.037h31.821c4.143 0 7.5-3.358 7.5-7.5s-3.357-7.5-7.5-7.5h-43.71c-7.173-7.877-15.276-14.996-24.164-21.196.38.015.76.026 1.141.026 6.916 0 13.525-2.495 18.701-6.832 5.175 4.337 11.785 6.832 18.701 6.832s13.525-2.495 18.701-6.832c5.175 4.337 11.785 6.832 18.701 6.832s13.525-2.495 18.701-6.832c5.175 4.337 11.785 6.832 18.701 6.832s13.525-2.495 18.701-6.832c2.502 2.097 5.341 3.758 8.386 4.92l-11.169 23.082h-26.391c-4.143 0-7.5 3.358-7.5 7.5s3.357 7.5 7.5 7.5h62z"/></g></g></svg>