<?xml version="1.0" encoding="iso-8859-1"?>
<!-- Generator: Adobe Illustrator 19.0.0, SVG Export Plug-In . SVG Version: 6.00 Build 0)  -->
<svg version="1.1" id="Capa_1" xmlns="http://www.w3.org/2000/svg" xmlns:xlink="http://www.w3.org/1999/xlink" x="0px" y="0px"
	 viewBox="0 0 512 512" style="enable-background:new 0 0 512 512;" xml:space="preserve">
<circle style="fill:#F7F0E6;" cx="255.999" cy="256" r="248.46"/>
<circle style="fill:#EEE2D4;" cx="255.999" cy="256" r="222.76"/>
<circle style="fill:#D7AF8C;" cx="255.999" cy="256" r="197.06"/>
<path style="fill:#C3BE66;" d="M453.055,256c0-108.831-88.225-197.056-197.056-197.056c-33.301,0-64.652,8.293-92.157,22.876
	c12.975,17.334,47.019,45.88,92.157,57.917c49.264,13.137,56.49,11.166,58.46,38.754c1.971,27.588-5.784,55.212,22.725,62.091
	c16.051,3.873,69.075,16.601,115.051,32.962C452.747,267.76,453.055,261.917,453.055,256z"/>
<circle style="fill:#EBC9A0;" cx="255.999" cy="256" r="171.35"/>
<g>
	
		<ellipse transform="matrix(-0.3294 -0.9442 0.9442 -0.3294 217.1185 689.7694)" style="fill:#E1BC96;" cx="353.51" cy="267.782" rx="50.34" ry="45.34"/>
	
		<ellipse transform="matrix(-0.3294 -0.9442 0.9442 -0.3294 -57.0468 502.1853)" style="fill:#E1BC96;" cx="149.813" cy="271.351" rx="45.92" ry="41.36"/>
	
		<ellipse transform="matrix(-0.3294 -0.9442 0.9442 -0.3294 156.3007 420.9669)" style="fill:#E1BC96;" cx="227.644" cy="154.978" rx="45.92" ry="41.36"/>
	
		<ellipse transform="matrix(0.5933 -0.805 0.805 0.5933 -220.3831 348.5315)" style="fill:#E1BC96;" cx="234.728" cy="392.365" rx="33.402" ry="30.08"/>
	
		<ellipse transform="matrix(0.5933 -0.805 0.805 0.5933 -133.8738 323.0438)" style="fill:#E1BC96;" cx="252.759" cy="294.008" rx="26.479" ry="23.85"/>
</g>
<g>
	
		<ellipse transform="matrix(0.7983 -0.6023 0.6023 0.7983 -153.5624 283.1684)" style="fill:#EDD9C2;" cx="345.955" cy="370.835" rx="31.071" ry="27.983"/>
	
		<ellipse transform="matrix(0.7983 -0.6023 0.6023 0.7983 -164.0891 247.9863)" style="fill:#EDD9C2;" cx="288.169" cy="368.959" rx="19.934" ry="17.955"/>
</g>
<path style="fill:#CED26A;" d="M255.999,84.647c-25.22,0-49.088,5.585-70.65,15.369c17.64,13.891,41.966,27.98,70.65,35.629
	c50.998,13.599,57.293,27.129,59.333,55.688s0.333,39.333,24.709,48.706c12.423,4.777,49.092,11.816,86.929,23.502
	c0.11-2.519,0.38-4.996,0.38-7.542C427.352,161.364,350.635,84.647,255.999,84.647z"/>
<g>
	<path style="fill:#B99B88;" d="M241.342,200.1c19.329-13.329,45.803-8.465,59.132,10.863l-14.495,4.199
		c-5.574,1.615-7.928,8.216-4.634,12.993l7.395,10.723c2.616,3.793,1.734,8.979-1.987,11.695l-13.741,10.028
		c-3.865,2.821-9.296,1.898-12.012-2.041l-7.653-11.098c-3.295-4.778-10.302-4.923-13.792-0.287l-9.076,12.056
		C217.149,239.903,222.013,213.429,241.342,200.1z"/>
	<path style="fill:#B99B88;" d="M228.759,355.812c8.683-17.764,30.123-25.126,47.887-16.444l-8.905,9.067
		c-3.425,3.487-2.427,9.304,1.964,11.45l9.855,4.817c3.486,1.704,4.98,5.874,3.371,9.404l-5.944,13.034
		c-1.672,3.666-6.039,5.231-9.659,3.462l-10.199-4.985c-4.391-2.146-9.594,0.64-10.241,5.484l-1.684,12.597
		C227.438,395.016,220.076,373.576,228.759,355.812z"/>
	<path style="fill:#B99B88;" d="M383.537,329.319c-8.437,21.543-32.74,32.167-54.283,23.73l9.523-11.421
		c3.662-4.392,1.945-11.081-3.379-13.167l-11.951-4.681c-4.227-1.656-6.367-6.377-4.825-10.647l5.693-15.766
		c1.601-4.435,6.545-6.675,10.935-4.956l12.369,4.844c5.325,2.085,11.128-1.659,11.422-7.37l0.766-14.85
		C381.349,283.473,391.974,307.777,383.537,329.319z"/>
	<path style="fill:#B99B88;" d="M117.85,276.03c-9.556-17.31-3.271-39.09,14.039-48.646l2.309,12.497
		c0.888,4.806,6.223,7.33,10.502,4.968l9.603-5.302c3.397-1.875,7.669-0.704,9.634,2.641l7.257,12.352
		c2.041,3.474,0.815,7.948-2.713,9.896l-9.939,5.487c-4.279,2.362-4.986,8.222-1.392,11.534l9.345,8.612
		C149.186,299.625,127.406,293.34,117.85,276.03z"/>
	<path style="fill:#B99B88;" d="M257.744,105.317c19.323-4.192,38.386,8.075,42.578,27.398l-12.634-1.372
		c-4.859-0.527-8.806,3.86-7.77,8.636l2.325,10.72c0.823,3.792-1.525,7.549-5.293,8.472l-13.914,3.411
		c-3.914,0.959-7.848-1.499-8.702-5.437l-2.407-11.095c-1.036-4.776-6.447-7.134-10.65-4.64l-10.93,6.484
		C226.154,128.572,238.421,109.509,257.744,105.317z"/>
	<path style="fill:#B99B88;" d="M400.497,173.781c10.261,16.902,4.877,38.922-12.025,49.183l-2.821-12.392
		c-1.085-4.765-6.52-7.067-10.697-4.531l-9.377,5.692c-3.317,2.013-7.633,1.019-9.735-2.243l-7.759-12.043
		c-2.182-3.387-1.141-7.908,2.303-9.999l9.704-5.891c4.178-2.536,4.643-8.42,0.916-11.581l-9.692-8.22
		C368.216,151.495,390.236,156.879,400.497,173.781z"/>
</g>
<path style="fill:#EEE2D4;" d="M147.567,208.887c0.478,2.009,1.187,5.062,4.032,8.19c11.411-30.537,35.779-54.663,66.475-65.746
	c-2.384-1.851-5.339-2.925-9.339-3.611c-2.053-0.352-4.034-0.838-6.02-1.074c-22.298-2.65-43.408-11.418-59.286-27.296
	L36.635,12.558c-7.352-7.362-19.755-6.627-26.099,2.204c-4.984,6.936-3.498,16.659,2.541,22.699l106.12,106.119
	c15.878,15.878,24.646,36.988,27.296,59.286C146.729,204.853,147.085,206.861,147.567,208.887z"/>
<path d="M436.991,75.046c-48.344-48.345-112.622-74.97-180.992-74.97c-59.432,0-117.011,20.702-162.734,58.391L42.018,7.22
	c-5.117-5.123-12.199-7.723-19.421-7.139C15.376,0.666,8.789,4.409,4.521,10.349c-6.923,9.637-5.492,23.557,3.33,32.378
	l50.577,50.577c-37.697,45.733-58.39,103.268-58.39,162.735c0,68.37,26.625,132.648,74.97,180.992
	C123.352,485.376,187.629,512,255.999,512s132.647-26.625,180.992-74.97c48.345-48.344,74.97-112.622,74.97-180.992
	S485.336,123.39,436.991,75.046z M16.704,19.1c1.718-2.391,4.241-3.836,7.105-4.068c2.822-0.228,5.597,0.787,7.599,2.792
	l99.892,99.892c17.916,17.916,41.49,29.379,68.59,33.501c-20.669,11.073-37.654,28.044-48.717,48.684
	c-4.126-27.088-15.587-50.652-33.497-68.561L18.457,32.12C14.833,28.495,14.063,22.777,16.704,19.1z M332.66,82.64
	c11.596,19.378,17.088,42.834,16.76,71.564c-0.672,0.361-1.339,0.74-1.999,1.141c-2.061,1.251-3.395,3.417-3.584,5.82
	c-0.19,2.404,0.787,4.752,2.625,6.311l9.333,7.916l-9.301,5.647c-3.412,2.071-5.783,5.353-6.679,9.241s-0.199,7.877,1.962,11.231
	l7.759,12.043c4.335,6.728,13.089,8.746,19.932,4.591l8.974-5.448l2.716,11.932c0.535,2.351,2.168,4.301,4.388,5.241
	c0.938,0.397,1.933,0.594,2.925,0.594c1.354,0,2.703-0.367,3.893-1.089c1.524-0.925,2.97-1.943,4.35-3.028
	c12.087,2.448,33.567,7.209,47.885,10.872c0.679,6.845,0.979,13.755,0.911,20.701c-19.485-6.236-38.594-9.967-55.675-13.294
	c-25.464-4.962-49.966-11.108-56.769-22.375c-5.981-9.913-6.112-23.957-4.384-43.402c1.374-15.466,2.413-38.756-4.406-62.349
	c-5.317-18.397-14.477-33.645-27.34-45.607C309.121,73.589,321.09,77.51,332.66,82.64z M365.949,164.335
	c10.859-1.512,22.097,3.388,28.137,13.338c6.041,9.95,5.203,22.183-1.149,31.118c-1.07-4.531-4.259-8.311-8.549-10.128
	c-1.828-0.774-3.772-1.157-5.711-1.157c-2.651,0-5.294,0.716-7.614,2.124l-9.094,5.521l-7.391-11.471l9.406-5.711
	c4.017-2.439,6.637-6.692,7.007-11.376C371.356,171.947,369.474,167.375,365.949,164.335z M411.956,202.644
	c0.649-2.655,1.036-5.333,1.182-8.004c7.303,1.475,15.324,3.199,23.929,5.323c2.151,6.954,3.9,14.038,5.239,21.219
	c-10.976-2.689-24.124-5.644-34.519-7.854C409.618,210.006,411.031,206.427,411.956,202.644z M173.968,289.609
	c-0.118-1.914-0.954-3.733-2.39-5.056l-8.999-8.293l9.525-5.259c1.388-0.766,2.611-1.737,3.658-2.861
	c8.995-0.556,19.637,0.891,28.977,2.432c8.522,1.406,21.974,3.626,37.369,3.626c27.251,0,60.562-6.984,83.27-37.753
	c3.963,3.876,9.098,7.14,15.333,9.986c-42.111,59.152-107.236,48.412-139.11,43.152l-12.685-2.09
	C183.637,286.625,178.458,287.451,173.968,289.609z M151.995,286.904c-3.534,0.35-7.137,0.028-10.65-0.986
	c-7.263-2.096-13.275-6.895-16.929-13.513c-3.654-6.618-4.512-14.263-2.416-21.526c1.014-3.514,2.661-6.735,4.84-9.538
	c0.878,4.579,3.911,8.496,8.129,10.491c4.248,2.01,9.24,1.854,13.355-0.418l9.313-5.142l6.913,11.766l-9.633,5.318
	c-4.114,2.271-6.906,6.413-7.469,11.079C146.889,279.068,148.588,283.722,151.995,286.904z M105.13,370.741
	c-16.704-21.898-28.008-46.557-33.913-72.194c10.419-37.249,22.71-72.106,57.537-89.712c2.614-1.321,5.307-2.507,8.044-3.576
	c0.228,1.781,0.426,3.575,0.583,5.389c0.186,2.141,0.476,4.312,0.861,6.453c0.587,3.263,1.438,6.513,2.524,9.667
	c-0.272,1.074-0.524,2.155-0.767,3.24l-0.737-3.987c-0.438-2.371-1.989-4.386-4.168-5.417c-2.18-1.031-4.721-0.952-6.832,0.214
	c-10.125,5.59-17.468,14.789-20.675,25.902c-1.184,4.1-1.747,8.28-1.712,12.431c-6.448,12.398-10.903,26.387-14.731,39.743
	c-1.142,3.982,1.161,8.135,5.143,9.276c0.69,0.198,1.386,0.292,2.07,0.292c3.261,0,6.262-2.144,7.206-5.435
	c1.963-6.849,4.206-14.242,6.859-21.431c3.918,6.315,9.306,11.418,15.695,14.961c-2.52,7.038-5.057,15.313-8.015,26.111
	C116.013,337.599,111.48,354.149,105.13,370.741z M107.069,141.946c5.078,5.078,9.547,10.706,13.417,16.793
	c-4.757,1.788-9.435,3.838-13.959,6.125c-8.958,4.529-17.121,9.824-24.601,15.943c6.112-14.114,14.028-27.645,23.747-40.257
	L107.069,141.946z M259.334,112.647c11.376-2.468,22.667,2.311,29.044,11.228c-4.637-0.464-9.245,1.318-12.361,4.781
	c-3.143,3.494-4.425,8.321-3.429,12.914l2.256,10.397l-13.254,3.249l-2.333-10.754c-0.997-4.592-4.163-8.455-8.471-10.332
	c-1.867-0.813-3.861-1.216-5.851-1.216c-2.569,0-5.13,0.672-7.399,1.997c0.677-3.486,2.019-6.845,3.999-9.921
	C245.625,118.633,251.946,114.249,259.334,112.647z M283.892,207.958c-4.927,1.427-8.897,5.164-10.62,9.996
	c-1.723,4.831-1.013,10.237,1.899,14.459l7.395,10.723c0.311,0.451,0.208,1.056-0.234,1.379l-13.741,10.028
	c-0.227,0.165-0.481,0.226-0.759,0.178c-0.277-0.047-0.498-0.188-0.657-0.419l-7.653-11.097c-2.912-4.223-7.712-6.808-12.84-6.915
	c-0.11-0.002-0.221-0.003-0.331-0.003c-5.008,0-9.768,2.368-12.787,6.378l-1.697,2.253c-4.108-14.096,1-29.864,13.733-38.644
	c12.733-8.781,29.287-7.95,41.002,0.899L283.892,207.958z M252.037,258.775c-4.005,0.277-8.031,0.364-12.049,0.295l5.558-7.383
	c0.205-0.272,0.486-0.407,0.822-0.399c0.34,0.007,0.611,0.153,0.804,0.433L252.037,258.775z M230.259,155.383
	c3.781-1.049,4.698-1.508,6.256-2.427l8.182-4.853l2.307,10.634c0.846,3.899,3.175,7.211,6.559,9.326
	c2.363,1.476,5.024,2.234,7.735,2.234c1.105,0,2.218-0.137,3.322-0.392c-8.546,18.282-18.77,22.78-46.28,18.241
	c-11.304-1.866-23.717-3.907-36.916-4.447C194.554,170.163,211.35,160.2,230.259,155.383z M169.372,198.68
	c16.435-0.69,32.391,1.932,46.526,4.265c3.603,0.594,6.993,1.034,10.193,1.324c-4.301,5.501-7.327,11.787-9.02,18.396
	c-1.432-0.233-2.867-0.469-4.307-0.706c-8.006-1.321-16.284-2.687-24.601-3.468c-4.12-0.388-7.781,2.641-8.169,6.765
	c-0.387,4.124,2.642,7.781,6.766,8.169c7.795,0.733,15.811,2.055,23.562,3.334c1.748,0.289,3.49,0.575,5.226,0.855
	c0.335,6.865,2.091,13.719,5.34,20.111c-4.664-0.545-9.249-1.218-13.706-1.953c-9.356-1.544-19.162-2.896-28.454-2.771
	c-0.293-0.773-0.64-1.532-1.068-2.26l-7.257-12.352c-3.239-5.513-9.419-8.126-15.347-6.987
	C157.932,219.568,162.839,208.537,169.372,198.68z M71.134,213.752c0.042-0.053,0.089-0.1,0.13-0.154
	c11.401-15.251,25.149-26.813,42.031-35.347c4.643-2.347,9.472-4.398,14.375-6.151c2.573,5.763,4.676,11.842,6.291,18.197
	c-4.09,1.477-8.103,3.195-11.974,5.152c-29.577,14.953-45.01,40.383-55.448,68.298C65.853,246.998,67.382,230.178,71.134,213.752z
	 M263.627,66.575c0.145,0.08,0.288,0.162,0.439,0.233c38.447,17.989,54.696,54.203,49.675,110.712
	c-1.651,18.58-1.656,33.151,2.967,45.224c-0.21,0.246-0.412,0.502-0.594,0.781c-5.374,8.246-11.574,14.72-18.352,19.753
	c-0.085-2.989-1.012-5.993-2.849-8.658l-7.395-10.723c-0.193-0.28-0.233-0.585-0.119-0.905c0.114-0.321,0.338-0.531,0.666-0.626
	l14.495-4.199c2.315-0.671,4.167-2.414,4.978-4.685c0.81-2.271,0.479-4.792-0.89-6.777c-8.149-11.817-20.514-19.024-33.698-21.022
	c3.778-5.74,6.949-12.746,9.974-20.968c5.196-3.162,8.013-9.315,6.648-15.606l-2.226-10.259l12.166,1.321
	c2.398,0.258,4.772-0.648,6.385-2.44c1.612-1.792,2.265-4.25,1.754-6.606c-3.484-16.06-15.515-28.107-30.284-32.408
	c-8.66-8.04-20.283-14.131-35.525-18.603c-10.219-2.999-17.61-6.822-22.644-10.105C233.847,67.117,248.765,65.972,263.627,66.575z
	 M200.919,74.565c4.445,4.411,15.798,13.809,36.699,19.942c4.97,1.458,9.454,3.09,13.486,4.908
	c-7.578,2.62-14.21,7.252-19.28,13.471c-13.876-4.231-38.009-15.802-53.528-29.837C185.688,79.722,193.246,76.893,200.919,74.565z
	 M164.085,90.188c16.808,17.203,44.211,30.562,60.283,36.048c-1.466,4.242-2.249,8.674-2.334,13.162
	c-1.647-0.432-3.305-0.815-4.972-1.116c-2.139-0.385-4.31-0.675-6.453-0.861c-27.509-2.393-51.266-12.875-68.703-30.312
	l-1.396-1.396C148.063,99.892,155.944,94.715,164.085,90.188z M426.385,426.424C380.873,471.936,320.362,497,255.999,497
	s-124.874-25.064-170.386-70.576S15.037,320.401,15.037,256.038c0-55.498,19.152-109.203,54.055-152.07l25.885,25.886
	c-59.622,75.872-57.9,183.336,4.384,257.677c3.429,4.093,6.263,5.093,7.949,5.157c2.883,0.109,5.637-1.675,6.871-4.487
	c9.368-21.336,15.223-42.712,20.388-61.571c2.879-10.509,5.321-18.475,7.727-25.173c2.315,0.378,4.64,0.589,6.958,0.589
	c4.739,0,9.441-0.802,13.953-2.356c-0.771,1.365-1.43,2.816-1.944,4.355c-2.946,8.82-5.808,19.276-8.109,27.679
	c-3.409,12.445-7.272,26.55-12.334,41.125c-1.359,3.913,0.711,8.187,4.625,9.546c0.814,0.283,1.645,0.417,2.461,0.417
	c3.104,0,6.008-1.943,7.084-5.041c5.227-15.05,9.161-29.413,12.633-42.087c2.251-8.224,5.053-18.458,7.868-26.887
	c1.525-4.566,6.148-7.3,10.987-6.504l12.683,2.089c32.766,5.407,108.697,17.931,156.067-52.571c9.143,2.796,19.757,5.2,31.739,7.535
	c17.784,3.465,37.826,7.377,57.765,14.104c-4.021,44.045-23.225,85.15-54.696,116.622c-33.765,33.765-78.617,53.418-126.294,55.339
	c-31.919,1.284-63.214-5.43-91.299-19.239c14.513-31.212,22.328-59.814,27.563-78.984l0.726-2.655
	c1.027-3.753,6.029-4.142,7.538-4.171c1.786-0.035,3.858-0.1,6.156-0.171c4.691-0.146,10.605-0.33,16.968-0.317
	c-3.77,3.509-6.978,7.744-9.372,12.641c-5.079,10.391-5.807,22.139-2.051,33.078c3.756,10.939,11.548,19.761,21.939,24.84
	c1.041,0.508,2.167,0.762,3.293,0.762c1.218,0,2.436-0.297,3.541-0.888c2.125-1.138,3.574-3.229,3.894-5.618l1.621-12.129
	l9.776,4.778c3.585,1.752,7.627,1.976,11.384,0.63c3.756-1.346,6.737-4.087,8.392-7.718l5.944-13.034
	c3.321-7.282,0.29-15.74-6.901-19.254l-9.432-4.61l8.575-8.73c1.689-1.72,2.449-4.147,2.042-6.523
	c-0.402-2.344-1.895-4.353-4.015-5.423l0.002-0.005c-0.022-0.011-0.045-0.021-0.066-0.032c-0.007-0.003-0.013-0.008-0.02-0.011
	c-0.029-0.014-0.058-0.026-0.087-0.04c-17.816-8.889-47.897-7.951-65.896-7.389c-2.232,0.07-4.246,0.133-5.981,0.167
	c-10.883,0.214-19.203,6.041-21.711,15.207l-0.729,2.664c-5.052,18.501-12.573,46.025-26.312,75.781
	c-8.767-5.216-17.15-11.167-25.062-17.823c-3.169-2.666-7.9-2.258-10.567,0.911s-2.259,7.901,0.911,10.567
	c36.908,31.049,83.319,47.894,131.501,47.894c2.774,0,5.555-0.056,8.339-0.168c51.454-2.073,99.859-23.282,136.297-59.72
	s57.647-84.843,59.721-136.297c2.061-51.144-14.889-100.807-47.726-139.84c-2.666-3.169-7.398-3.578-10.567-0.911
	c-3.17,2.667-3.578,7.398-0.911,10.567c12.483,14.838,22.482,31.337,29.809,48.907c-7.151-1.618-13.812-2.979-19.902-4.176
	c-1.026-3.126-2.407-6.16-4.157-9.043c-9.138-15.051-26.05-22.539-42.486-20.47c-0.221-20.663-3.364-38.891-9.517-55.081
	c7.944,4.878,15.615,10.386,22.931,16.541c1.406,1.183,3.12,1.761,4.824,1.761c2.137,0,4.26-0.909,5.743-2.672
	c2.667-3.17,2.259-7.901-0.911-10.567c-74.215-62.435-181.807-64.006-257.678-4.383l-25.889-25.89
	c42.857-34.894,96.606-54.049,152.072-54.049c64.363,0,124.874,25.064,170.386,70.576s70.576,106.022,70.576,170.386
	S471.897,380.912,426.385,426.424z M235.497,359.105c5.112-10.458,15.848-16.362,26.809-15.84
	c-3.234,3.348-4.694,8.073-3.906,12.665c0.794,4.632,3.79,8.629,8.012,10.692l9.558,4.672l-5.663,12.416l-9.886-4.832
	c-4.223-2.063-9.217-1.971-13.358,0.248c-4.114,2.203-6.948,6.266-7.597,10.884c-2.316-2.691-4.121-5.826-5.309-9.285
	C231.701,373.575,232.177,365.897,235.497,359.105z"/>
<path d="M320.711,330.765l11.951,4.68c0.104,0.041,0.419,0.164,0.53,0.599c0.112,0.435-0.105,0.695-0.176,0.781l-9.523,11.421
	c-1.544,1.852-2.104,4.333-1.504,6.667c0.6,2.335,2.285,4.24,4.53,5.119c5.84,2.287,11.936,3.428,18.024,3.428
	c6.719,0,13.429-1.39,19.771-4.162c12.088-5.285,21.396-14.96,26.206-27.245l0,0c4.811-12.284,4.55-25.707-0.734-37.795
	c-5.285-12.088-14.96-21.395-27.245-26.206c-2.245-0.879-4.775-0.625-6.801,0.682c-2.025,1.307-3.299,3.508-3.424,5.916
	l-0.766,14.85c-0.005,0.111-0.023,0.449-0.401,0.693c-0.377,0.244-0.692,0.12-0.796,0.08l-12.369-4.844
	c-4.024-1.576-8.408-1.461-12.345,0.323c-3.936,1.784-6.912,5.005-8.379,9.07l-5.693,15.766
	C308.623,318.741,312.64,327.604,320.711,330.765z M325.676,315.682l5.693-15.766c0.083-0.231,0.239-0.4,0.463-0.501
	c0.223-0.101,0.454-0.108,0.683-0.018l12.368,4.844c4.739,1.856,10.122,1.317,14.399-1.443c4.277-2.759,6.987-7.441,7.249-12.524
	l0.133-2.575c4.01,3.363,7.22,7.634,9.378,12.57c3.68,8.417,3.861,17.763,0.511,26.317l0,0c-3.35,8.553-9.83,15.291-18.248,18.97
	c-4.937,2.158-10.195,3.111-15.42,2.858l1.651-1.981c3.26-3.909,4.45-9.186,3.185-14.116s-4.85-8.981-9.59-10.838l-11.951-4.68
	C325.735,316.623,325.513,316.133,325.676,315.682z"/>
<path d="M326.802,383.154c-3.117-2.728-7.855-2.412-10.583,0.706l-7.497,8.568c-2.728,3.117-2.412,7.855,0.706,10.583
	c1.423,1.245,3.183,1.856,4.936,1.856c2.087,0,4.165-0.867,5.647-2.561l7.497-8.568C330.235,390.62,329.919,385.882,326.802,383.154
	z"/>
<path d="M409.527,301.21c1.048,3.143,3.974,5.13,7.114,5.13c0.786,0,1.586-0.125,2.373-0.387c3.93-1.31,6.053-5.557,4.744-9.487
	l-2.677-8.032c-1.311-3.93-5.558-6.053-9.487-4.744c-3.93,1.31-6.053,5.557-4.744,9.487L409.527,301.21z"/>
<path d="M214.921,405.704c-1.31-3.93-5.558-6.053-9.487-4.744c-3.93,1.31-6.053,5.557-4.744,9.487l2.677,8.032
	c1.048,3.143,3.974,5.13,7.114,5.13c0.786,0,1.586-0.125,2.373-0.387c3.93-1.31,6.053-5.557,4.744-9.487L214.921,405.704z"/>
<path d="M298.3,343.749c1.173,2.932,3.989,4.716,6.966,4.716c0.927,0,1.87-0.173,2.784-0.539c3.846-1.539,5.716-5.904,4.177-9.749
	l-1.428-3.57c-1.539-3.845-5.902-5.717-9.75-4.177c-3.846,1.539-5.716,5.904-4.177,9.749L298.3,343.749z"/>
<path d="M232.438,181.393h4.284c4.142,0,7.5-3.358,7.5-7.5s-3.358-7.5-7.5-7.5h-4.284c-4.142,0-7.5,3.358-7.5,7.5
	S228.296,181.393,232.438,181.393z"/>
<path d="M300.265,165.68c-4.142,0-7.5,3.358-7.5,7.5v3.57c0,4.142,3.358,7.5,7.5,7.5s7.5-3.358,7.5-7.5v-3.57
	C307.765,169.037,304.407,165.68,300.265,165.68z"/>
<g>
</g>
<g>
</g>
<g>
</g>
<g>
</g>
<g>
</g>
<g>
</g>
<g>
</g>
<g>
</g>
<g>
</g>
<g>
</g>
<g>
</g>
<g>
</g>
<g>
</g>
<g>
</g>
<g>
</g>
</svg>
