<svg viewBox="0 0 512 512.0009" xmlns="http://www.w3.org/2000/svg"><path d="m503.972656 68.453125-50.519531 170.113281-22.65625 76.28125-28.484375 95.894532-69.03125-20.550782-25.296875-7.527344 20.148437-67.816406 22.65625-76.285156 39.875-134.273438 18.980469-63.902343c2.894531-9.742188 16.027344-11.335938 21.152344-2.554688l15.023437 25.730469c3.082032 5.285156 9.734376 7.261719 15.207032 4.53125l26.628906-13.335938c9.082031-4.550781 19.210938 3.949219 16.316406 13.695313zm0 0" fill="#ff8b00"/><path d="m453.453125 238.566406-22.65625 76.28125h-102.664063l22.660157-76.28125zm0 0" fill="#ff6900"/><path d="m390.664062 104.292969v285.898437h-57.382812l-25.292969-7.527344zm0 0" fill="#ff6900"/><path d="m256.230469 402.054688-94.316407 28.074218-34.238281-115.28125-22.667969-76.28125-44.765624-150.722656c-2.894532-9.75 7.238281-18.25 16.320312-13.699219l26.625 13.335938c5.476562 2.730469 12.128906.757812 15.210938-4.53125l15.023437-25.726563c5.132813-8.785156 18.253906-7.191406 21.148437 2.554688l53.101563 178.789062 22.65625 76.28125zm0 0" fill="#ff8b00"/><path d="m230.328125 314.847656h-102.652344l-22.667969-76.28125h102.664063zm0 0" fill="#ff6900"/><path d="m376.660156 19.152344v357.101562h-98.402344v-357.101562c0-10.164063 12.125-15.425782 19.539063-8.46875l21.722656 20.378906c4.460938 4.179688 11.40625 4.179688 15.863281 0l21.738282-20.378906c7.410156-6.957032 19.539062-1.691406 19.539062 8.46875zm0 0" fill="#fa0"/><path d="m278.257812 238.566406h98.398438v76.28125h-98.398438zm0 0" fill="#ff8b00"/><path d="m336.386719 103.976562v272.277344h-58.128907v-276.839844l14.976563-14.046874c4.785156-4.496094 10.992187-6.957032 17.472656-6.957032 14.160157 0 25.679688 11.464844 25.679688 25.566406zm0 0" fill="#ff8b00"/><path d="m322.378906 103.988281v357.085938h-98.402344v-357.085938c0-10.175781 12.128907-15.4375 19.542969-8.480469l21.734375 20.378907c4.457032 4.179687 11.402344 4.179687 15.863282 0l21.722656-20.378907c7.410156-6.957031 19.539062-1.695312 19.539062 8.480469zm0 0" fill="#ffd02f"/><path d="m223.976562 238.566406h98.402344v76.28125h-98.402344zm0 0" fill="#fa0"/><path d="m475.234375 276.710938-4.300781 38.445312-18.273438 163.085938c-.675781 6.019531-5.761718 10.574218-11.808594 10.574218h-314.113281c-6.046875 0-11.132812-4.554687-11.808593-10.574218l-18.273438-163.085938-4.300781-38.445312zm0 0" fill="#f5f6e3"/><path d="m475.234375 276.710938-4.300781 38.445312c-.453125.011719-.914063.027344-1.367188.027344h-371.546875c-.449219 0-.914062-.015625-1.363281-.027344l-4.300781-38.445312zm0 0" fill="#e0e0d1"/><path d="m475.234375 276.710938-22.578125 201.539062c-.671875 6.015625-5.757812 10.566406-11.808594 10.566406h-139.171875c99.96875-50.414062 118.324219-159.007812 121.105469-212.105468zm0 0" fill="#e0e0d1"/><path d="m469.558594 300.910156h-371.527344c-12.894531 0-23.34375-10.449218-23.34375-23.34375v-1.714844c0-12.890624 10.449219-23.34375 23.34375-23.34375h371.527344c12.890625 0 23.34375 10.449219 23.34375 23.34375v1.714844c0 12.894532-10.449219 23.34375-23.34375 23.34375zm0 0" fill="#f5f6e3"/><path d="m333.894531 393.476562c0 10.921876-1.898437 21.257813-5.277343 30.410157-8.214844 22.324219-25.203126 37.644531-44.824219 37.644531-19.617188 0-36.605469-15.320312-44.820313-37.644531-3.378906-9.152344-5.277344-19.488281-5.277344-30.410157 0-3.046874.144532-6.054687.4375-8.992187 3.230469-33.339844 24.238282-59.066406 49.660157-59.066406 25.425781 0 46.433593 25.726562 49.664062 59.066406.292969 2.9375.4375 5.945313.4375 8.992187zm0 0" fill="#b0e8ff"/><path d="m333.894531 393.476562c0 10.925782-1.902343 21.257813-5.28125 30.410157h-89.636719c-3.378906-9.152344-5.28125-19.484375-5.28125-30.410157 0-3.042968.140626-6.050781.441407-8.996093h99.316406c.300781 2.945312.441406 5.953125.441406 8.996093zm0 0" fill="#ff4e61"/><path d="m191.1875 425.089844-.128906 1.183594-1.21875 10.847656-4.300782 38.421875-.871093 7.75c-1.347657 12.070312-11.597657 21.207031-23.808594 21.207031h-122.9375c-12.199219 0-22.457031-9.136719-23.808594-21.207031l-.867187-7.75-4.300782-38.421875-1.222656-10.847656-.128906-1.183594c-1.050781-9.414063 6.351562-17.644532 15.871094-17.644532h151.855468c9.519532 0 16.929688 8.230469 15.867188 17.644532zm0 0" fill="#bc6c35"/><path d="m189.839844 437.121094-4.300782 38.421875h-172.292968l-4.300782-38.421875zm0 0" fill="#b0e8ff"/><g fill="none" stroke-linecap="round" stroke-miterlimit="10" stroke-width="15" transform="matrix(.99997 0 0 .99997 -.01 0)"><path d="m128.780333 135.540013h.125004" stroke="#bc6c35" stroke-linejoin="round"/><path d="m283.969382 165.466847.125004.003906" stroke="#fa0"/><path d="m426.572052 115.285395h.125004" stroke="#bc6c35" stroke-linejoin="round"/><path d="m268.859476 190.983369h.125004" stroke="#fa0"/><path d="m152.12881 157.173586h.125004" stroke="#bc6c35" stroke-linejoin="round"/></g><path d="m505.113281 50.488281c-5.925781-4.96875-13.902343-5.902343-20.820312-2.4375l-26.625 13.332031c-1.925781.96875-4.285157.265626-5.375-1.601562l-15.023438-25.726562c-3.902343-6.6875-11.101562-10.261719-18.78125-9.335938-7.679687.921875-13.824219 6.109375-16.027343 13.53125l-18.304688 61.636719v-80.726563c0-7.746094-4.414062-14.46875-11.519531-17.546875-7.097657-3.070312-15.011719-1.691406-20.652344 3.597657l-21.726563 20.378906c-1.574218 1.476562-4.039062 1.476562-5.609374 0l-21.726563-20.378906c-5.640625-5.2929692-13.558594-6.671876-20.652344-3.597657-7.105469 3.078125-11.515625 9.800781-11.515625 17.546875v18.828125c0 4.144531 3.355469 7.5 7.5 7.5 4.140625 0 7.496094-3.355469 7.496094-7.5v-18.828125c0-2.445312 1.734375-3.457031 2.480469-3.78125.742187-.320312 2.660156-.890625 4.429687.773438l21.726563 20.378906c7.324219 6.867188 18.804687 6.867188 26.132812 0l21.722657-20.378906c1.773437-1.664063 3.691406-1.097656 4.433593-.773438.742188.324219 2.476563 1.335938 2.476563 3.78125v225.851563h-39.269532v-141.027344c0-7.746094-4.414062-14.46875-11.515624-17.542969-7.097657-3.074218-15.011719-1.695312-20.65625 3.597656l-11.960938 11.21875v-29.257812c0-4.140625-3.355469-7.5-7.496094-7.5-4.144531 0-7.5 3.359375-7.5 7.5v38.703125c-.128906-.09375-.257812-.179687-.375-.289063l-21.726562-20.375c-5.640625-5.292968-13.558594-6.671874-20.652344-3.597656-7.105469 3.074219-11.519531 9.796875-11.519531 17.542969v137.910156l-54.722657-184.257812c-2.203124-7.421875-8.34375-12.605469-16.027343-13.53125-7.6875-.929688-14.878907 2.648437-18.78125 9.335937l-15.023438 25.726563c-1.089843 1.863281-3.449219 2.570312-5.375 1.605469l-26.628906-13.335938c-6.914063-3.464844-14.890625-2.53125-20.816406 2.4375-5.933594 4.976562-8.25 12.675781-6.046875 20.101562l25.640625 86.328126c1.179687 3.972656 5.355469 6.238281 9.324219 5.054687 3.972656-1.179687 6.234374-5.355469 5.054687-9.324219l-25.640625-86.328125c-.695312-2.34375.679688-3.8125 1.300781-4.332031.621094-.523438 2.296875-1.613281 4.46875-.527344l26.625 13.335938c8.980469 4.5 19.980469 1.226562 25.046875-7.449219l15.023438-25.730469c1.226562-2.101562 3.226562-2.101562 4.03125-2.007812.804687.097656 2.75.574218 3.445312 2.914062l54.382813 183.101563h-87.011719l-12-40.410157c-1.179688-3.96875-5.351562-6.234374-9.324219-5.054687-3.972656 1.179687-6.234375 5.355469-5.054687 9.324219l10.734375 36.140625h-1.074219c-17.007812 0-30.84375 13.835937-30.84375 30.84375v1.714843c0 13.5625 8.800781 25.097657 20.988281 29.21875l10.4375 93.15625h-75.144531c-6.683594 0-13.070312 2.855469-17.519531 7.832032-4.425781 4.949218-6.542969 11.566406-5.804688 18.160156l6.519531 58.199219c1.78125 15.886719 15.222657 27.863281 31.261719 27.863281h33.976563c4.144531 0 7.5-3.355469 7.5-7.5 0-4.140625-3.355469-7.5-7.5-7.5h-33.976563c-8.195312 0-15.078125-5.960938-16.261719-13.953125h155.457032c-1.183594 7.992187-8.0625 13.953125-16.261719 13.953125h-54.78125c-4.140625 0-7.5 3.359375-7.5 7.5 0 4.144531 3.359375 7.5 7.5 7.5h54.78125c11.578125 0 21.796875-6.238281 27.257813-15.679688h252.730468c9.882813 0 18.160156-7.410156 19.261719-17.234374l19.304687-172.296876c12.1875-4.121093 20.988282-15.660156 20.988282-29.21875v-1.71875c0-17.003906-13.835938-30.839843-30.84375-30.839843h-10.203125l51.804687-174.421875c2.203125-7.425782-.109375-15.125-6.046875-20.101563zm-271.152343 49.71875c.742187-.324219 2.660156-.894531 4.429687.769531l21.726563 20.378907c7.328124 6.871093 18.808593 6.871093 26.132812 0l21.726562-20.378907c1.769532-1.660156 3.6875-1.09375 4.429688-.769531.746094.320313 2.476562 1.335938 2.476562 3.777344v141.027344h-83.398437v-141.027344c0-2.441406 1.730469-3.457031 2.476563-3.777344zm-216.832032 317.566407c1.628906-1.824219 3.882813-2.828126 6.339844-2.828126h151.847656c2.457032 0 4.710938 1.003907 6.339844 2.828126 1.609375 1.796874 2.347656 4.101562 2.082031 6.492187l-.601562 5.359375h-167.484375l-.601563-5.359375c-.265625-2.390625.46875-4.695313 2.078125-6.492187zm.203125 26.851562h164.125l-2.625 23.421875h-158.875zm427.871094 32.792969c-.25 2.222656-2.121094 3.898437-4.355469 3.898437h-248.410156l6.207031-55.382812c.734375-6.589844-1.378906-13.210938-5.804687-18.160156-4.449219-4.976563-10.835938-7.828126-17.523438-7.828126h-61.609375l-10.253906-91.535156h360.683594zm40.199219-201.566407v1.71875c0 8.734376-7.105469 15.84375-15.84375 15.84375h-371.527344c-8.738281 0-15.84375-7.105468-15.84375-15.84375v-1.71875c0-8.734374 7.105469-15.839843 15.84375-15.839843h371.527344c8.738281 0 15.84375 7.105469 15.84375 15.839843zm11.378906-209.535156-53.070312 178.695313h-59.558594v-92.675781c.128906-.289063.246094-.585938.335937-.894532l32.351563-108.921875c.691406-2.335937 2.640625-2.8125 3.441406-2.910156.808594-.097656 2.808594-.097656 4.035156 2.007813l15.023438 25.726562c5.0625 8.675781 16.066406 11.945312 25.046875 7.453125l26.625-13.335937c2.167969-1.089844 3.847656.003906 4.46875.523437.621093.523437 1.996093 1.992187 1.300781 4.332031zm0 0"/><path d="m283.792969 317.917969c-15.828125 0-30.550781 8.164062-41.464844 22.988281-10.402344 14.132812-16.132813 32.800781-16.132813 52.570312 0 19.765626 5.730469 38.433594 16.132813 52.570313 10.914063 14.820313 25.640625 22.984375 41.464844 22.984375 15.828125 0 30.554687-8.164062 41.464843-22.984375 10.402344-14.136719 16.132813-32.804687 16.132813-52.570313 0-19.769531-5.730469-38.4375-16.132813-52.570312-10.910156-14.824219-25.636718-22.988281-41.464843-22.988281zm-42.597657 75.558593c0-.5.019532-.992187.027344-1.488281h85.144532c.007812.496094.027343.988281.027343 1.488281 0 8.105469-1.136719 15.839844-3.175781 22.914063h-78.847656c-2.042969-7.074219-3.175782-14.808594-3.175782-22.914063zm42.597657-60.558593c19.46875 0 35.917969 18.667969 40.984375 44.070312h-81.964844c5.066406-25.402343 21.511719-44.070312 40.980469-44.070312zm0 121.113281c-13.398438 0-25.367188-8.847656-33.183594-22.640625h66.367187c-7.816406 13.792969-19.78125 22.640625-33.183593 22.640625zm0 0"/><path d="m128.890625 143.035156c4.140625 0 7.5-3.355468 7.5-7.5 0-4.140625-3.359375-7.5-7.5-7.5h-.125c-4.140625 0-7.5 3.359375-7.5 7.5 0 4.144532 3.359375 7.5 7.5 7.5zm0 0"/><path d="m283.890625 172.964844h.125.0625c4.113281 0 7.464844-3.320313 7.496094-7.441406.035156-4.140626-3.296875-7.523438-7.4375-7.558594h-.125c-4.171875-.054688-7.527344 3.300781-7.5625 7.441406-.03125 4.140625 3.300781 7.523438 7.441406 7.558594zm0 0"/><path d="m426.671875 107.78125h-.125c-4.140625 0-7.5 3.359375-7.5 7.5 0 4.144531 3.359375 7.5 7.5 7.5h.125c4.144531 0 7.5-3.355469 7.5-7.5 0-4.140625-3.355469-7.5-7.5-7.5zm0 0"/><path d="m268.839844 198.480469h.125c4.140625 0 7.5-3.359375 7.5-7.5 0-4.144531-3.359375-7.5-7.5-7.5h-.125c-4.140625 0-7.5 3.355469-7.5 7.5 0 4.140625 3.359375 7.5 7.5 7.5zm0 0"/><path d="m152.238281 164.671875c4.140625 0 7.5-3.359375 7.5-7.5 0-4.144531-3.359375-7.5-7.5-7.5h-.125c-4.144531 0-7.5 3.355469-7.5 7.5 0 4.140625 3.355469 7.5 7.5 7.5zm0 0"/></svg>